<svg width="368" height="298" viewBox="0 0 368 298" fill="none" xmlns="http://www.w3.org/2000/svg">
<g clip-path="url(#clip0_2779:1071)">
<path d="M203.38 25.8941C196.578 24.8871 190.429 21.2869 186.222 15.8479C185.966 15.5229 185.64 15.2602 185.268 15.0796C184.896 14.899 184.487 14.8052 184.074 14.8052C183.66 14.8052 183.252 14.899 182.879 15.0796C182.507 15.2602 182.181 15.5229 181.925 15.8479C177.648 21.3048 171.441 24.9126 164.583 25.9274C129.284 31.1912 96.702 46.4049 78.6047 73.3602C60.6739 100.06 68.6621 141.792 98.253 155.6H56.1468C55.7298 155.598 55.3166 155.68 54.9315 155.84C54.5464 156 54.1971 156.235 53.9041 156.532C53.6111 156.829 53.3802 157.181 53.2251 157.568C53.0699 157.955 52.9935 158.37 53.0004 158.787C54.5366 223.195 102.536 276.129 164.768 285.309C171.57 286.314 177.719 289.911 181.929 295.348C182.184 295.673 182.51 295.936 182.882 296.117C183.254 296.298 183.662 296.393 184.076 296.393C184.489 296.393 184.897 296.298 185.269 296.117C185.641 295.936 185.967 295.673 186.222 295.348C190.465 289.921 196.621 286.321 203.431 285.287C238.771 280.038 274.218 264.872 292.989 236.299C310.69 209.359 299.482 169.403 269.891 155.603H312C312.418 155.605 312.831 155.524 313.216 155.364C313.601 155.205 313.951 154.97 314.244 154.673C314.538 154.377 314.769 154.025 314.925 153.638C315.08 153.251 315.157 152.837 315.151 152.42C313.614 88.0113 265.615 35.0779 203.361 25.9052" fill="#C7FA73"/>
<path d="M203.38 25.8941C196.578 24.8871 190.429 21.2869 186.222 15.8479C185.966 15.5229 185.64 15.2602 185.268 15.0796C184.896 14.899 184.487 14.8052 184.074 14.8052C183.66 14.8052 183.252 14.899 182.879 15.0796C182.507 15.2602 182.181 15.5229 181.925 15.8479C177.648 21.3048 171.441 24.9126 164.583 25.9274C129.284 31.1912 96.702 46.4049 78.6047 73.3602C60.6739 100.06 68.6621 141.792 98.253 155.6H56.1468C55.7298 155.598 55.3166 155.68 54.9315 155.84C54.5464 156 54.1971 156.235 53.9041 156.532C53.6111 156.829 53.3802 157.181 53.2251 157.568C53.0699 157.955 52.9935 158.37 53.0004 158.787C54.5366 223.195 102.536 276.129 164.768 285.309C171.57 286.314 177.719 289.911 181.929 295.348C182.184 295.673 182.51 295.936 182.882 296.117C183.254 296.298 183.662 296.393 184.076 296.393C184.489 296.393 184.897 296.298 185.269 296.117C185.641 295.936 185.967 295.673 186.222 295.348C190.465 289.921 196.621 286.321 203.431 285.287C238.771 280.038 274.218 264.872 292.989 236.299C310.69 209.359 299.482 169.403 269.891 155.603H312C312.418 155.605 312.831 155.524 313.216 155.364C313.601 155.205 313.951 154.97 314.244 154.673C314.538 154.377 314.769 154.025 314.925 153.638C315.08 153.251 315.157 152.837 315.151 152.42C313.614 88.0113 265.615 35.0779 203.361 25.9052" stroke="white" stroke-width="2" stroke-miterlimit="10"/>
<path d="M162.38 10.6392L160.699 10.084C157.979 18.6311 159.278 28.0962 161.54 31.2685C165.826 27.0733 170.114 22.8781 174.403 18.6829L162.38 10.6392Z" fill="black"/>
<path d="M162.38 92.5381C152.796 95.9007 143.43 99.8568 134.337 104.383C127.563 107.752 121.803 110.961 116.165 114.404C117.061 112.679 118.016 110.898 119.086 109.077C120.156 107.256 121.244 105.453 122.314 103.787L123.576 102.229C120.615 104.08 113.533 101.726 109.328 95.0219C105.586 89.0512 104.387 82.8916 106.267 80.3042C82.5767 102.936 57.2537 144.483 80.9146 168.096C98.168 185.309 126.863 164.909 135.136 155.607L170.461 122.025L162.38 92.5381Z" fill="white"/>
<path d="M140.822 119.175C135.493 138.005 130.556 215.345 117.161 268.066C121.546 272.636 127.131 273.143 136.778 277.713C147.372 283.203 162.165 283.806 172.32 287.868C173.901 287.235 206.847 285.329 206.847 285.329L263.714 271.113L280.104 161.933L215.325 87.3779L163.598 93.2191L140.822 119.175Z" fill="white"/>
<path d="M140.822 119.175C135.493 138.005 130.556 215.346 117.161 268.066" stroke="black" stroke-width="1.2" stroke-linecap="round" stroke-linejoin="round"/>
<path d="M265.042 261.633C230.898 263.621 166.552 282.906 121.788 247.296C120.362 254.496 118.819 261.473 117.142 268.066C122.053 272.636 127.639 273.522 134.747 277.206C145.341 282.695 155.565 282.283 170.797 286.853C171.321 286.643 177.905 290.915 184.506 296.5C199.738 277.713 233.25 283.806 233.25 283.806L263.714 271.113L265.03 261.629L265.042 261.633Z" fill="black"/>
<path d="M204.12 28.1552C203.75 32.712 204.919 63.691 205.301 69.5729C205.534 73.2375 205.945 76.643 206.456 79.7635C206.7 81.2012 206.633 82.6746 206.26 84.0844C205.888 85.4942 205.217 86.8078 204.294 87.9367C197.697 95.8879 186.829 103.113 179.171 102.836C174.655 102.673 171.268 98.5752 171.767 94.0852C172.097 91.072 172.345 87.8664 172.478 84.4905C172.63 80.6038 172.611 76.9392 172.478 73.5263C172.941 68.2477 167.355 28.27 167.818 22.9915L204.12 28.1552Z" fill="#C7FA73" stroke="black" stroke-width="1.2" stroke-miterlimit="10"/>
<path d="M116.166 114.396C107.707 120.297 89.4101 100.7 95.1995 92.1865" stroke="black" stroke-width="1.2" stroke-linecap="round" stroke-linejoin="round"/>
<path d="M112.915 131.853C111.805 120.493 118.893 109.307 122.314 103.78" stroke="black" stroke-width="1.2" stroke-linecap="round" stroke-linejoin="round"/>
<path d="M132.13 91.6421L133.341 89.2323L139.826 83.3134L147.27 74.1444L130.905 61.1443L112.219 82.4991L122.317 103.78L132.13 91.6421Z" fill="#C7FA73"/>
<path d="M171.149 43.3619L164.294 35.9883L133.767 73.5155C133.418 73.9449 133.236 74.4859 133.254 75.0389C133.272 75.5919 133.49 76.1196 133.866 76.5249L144.894 88.3924C145.151 88.6677 145.473 88.8747 145.83 88.9949C146.188 89.115 146.569 89.1446 146.941 89.0809V89.0809L149.532 88.6811L149.321 87.0635L171.668 59.5899C173.551 57.2766 174.536 54.3608 174.441 51.3791C174.346 48.3974 173.177 45.5504 171.149 43.3619V43.3619Z" fill="black" stroke="black" stroke-width="1.2" stroke-linecap="round" stroke-linejoin="round"/>
<path d="M147.377 88.0113L136.343 76.1475C135.965 75.7426 135.747 75.2147 135.729 74.6615C135.711 74.1083 135.893 73.5672 136.243 73.1381L166.767 35.6108L173.8 43.1844C175.781 45.3146 176.925 48.0891 177.021 50.9965C177.118 53.9039 176.16 56.7482 174.325 59.0052L150.835 87.9002C150.628 88.1545 150.368 88.3614 150.075 88.5069C149.781 88.6524 149.459 88.7332 149.131 88.7437C148.804 88.7543 148.477 88.6943 148.175 88.5679C147.872 88.4416 147.6 88.2517 147.377 88.0113V88.0113Z" fill="white"/>
<path d="M143.165 83.4839L147.378 88.011C147.677 88.3308 148.063 88.5571 148.488 88.6625L149.454 56.895L143.761 63.8948L143.165 83.4839Z" fill="#C7FA73"/>
<path d="M147.377 88.0113L136.343 76.1475C135.965 75.7426 135.747 75.2147 135.729 74.6615C135.711 74.1083 135.893 73.5672 136.243 73.1381L166.767 35.6108L173.622 42.9845C175.655 45.1703 176.83 48.0175 176.929 51.0011C177.028 53.9847 176.046 56.9037 174.162 59.2199L150.842 87.8965C150.635 88.1523 150.376 88.3606 150.082 88.5072C149.787 88.6538 149.465 88.7353 149.136 88.7462C148.807 88.7571 148.48 88.6971 148.177 88.5703C147.873 88.4434 147.601 88.2528 147.377 88.0113V88.0113Z" stroke="black" stroke-width="1.2" stroke-linecap="round" stroke-linejoin="round"/>
<path d="M120.092 88.2699C124.294 94.9699 126.556 100.356 123.587 102.218C120.618 104.08 114.858 101.611 109.406 95.8805C104.627 90.85 102.132 85.6122 107.107 79.5045C109.306 76.7949 115.876 81.57 120.092 88.2699Z" fill="#C7FA73"/>
<path d="M123.961 89.9434C125.171 91.1283 126.726 91.8982 128.403 92.1421C132.663 92.69 137.438 89.2067 139.837 83.3137" fill="#C7FA73"/>
<path d="M122.317 103.78L132.13 91.6426" stroke="black" stroke-width="1.2" stroke-linecap="round" stroke-linejoin="round"/>
<path d="M143.979 55.9253L143.635 54.0264C142.628 50.7171 143.461 49.3697 143.887 48.8737C145.904 46.5083 152.108 47.1487 159.6 51.3464C159.884 51.4926 160.112 51.7262 160.252 52.0127C161.074 53.8635 156.92 56.0104 154.585 55.1517L143.979 55.9253Z" fill="#C7FA73"/>
<path d="M143.635 54.0264C142.628 50.7171 143.461 49.3697 143.887 48.8737C145.904 46.5083 152.108 47.1487 159.6 51.3464C159.887 51.4877 160.117 51.7228 160.252 52.0127C161.251 54.552 154.644 55.7772 151.257 54.6815" stroke="black" stroke-width="1.2" stroke-linecap="round" stroke-linejoin="round"/>
<path d="M137.224 55.7401L137.594 53.8449C137.853 50.395 139.119 49.44 139.697 49.1327C142.432 47.6521 147.985 50.5023 153.444 57.1283C153.657 57.366 153.786 57.6659 153.815 57.9833C153.911 60.0081 149.254 60.5005 147.396 58.8569L137.224 55.7401Z" fill="#C7FA73"/>
<path d="M137.591 53.8449C137.85 50.395 139.116 49.44 139.693 49.1327C142.429 47.6521 147.981 50.5023 153.441 57.1283C153.653 57.366 153.783 57.6659 153.811 57.9833C153.907 60.0081 148.747 60.6559 146.445 58.6755" stroke="black" stroke-width="1.2" stroke-linecap="round" stroke-linejoin="round"/>
<path d="M108.418 86.3565L107.096 79.5084C111.79 74.4187 125.73 58.3721 130.228 56.8951C135.306 55.9105 145.205 66.1122 145.179 68.2036C145.119 72.4235 137.461 70.0211 131.112 66.8414" fill="#C7FA73"/>
<path d="M130.228 60.1745L130.657 57.8795C130.957 53.704 132.438 52.5491 133.115 52.1753C136.317 50.3948 142.81 53.8373 149.202 61.8587C149.45 62.1492 149.599 62.5109 149.628 62.8915C149.743 65.342 144.294 65.938 142.117 63.9465L130.228 60.1745Z" fill="#C7FA73"/>
<path d="M123.961 89.9434C125.171 91.1283 126.726 91.8982 128.403 92.1421C132.663 92.69 137.438 89.2067 139.837 83.3137" stroke="black" stroke-width="1.2" stroke-linecap="round" stroke-linejoin="round"/>
<path d="M106.267 80.2969C110.961 75.2034 125.731 58.3721 130.228 56.8951C135.307 55.9105 145.205 66.1122 145.179 68.2036C145.12 72.4235 137.461 70.0211 131.113 66.8414" stroke="black" stroke-width="1.2" stroke-linecap="round" stroke-linejoin="round"/>
<path d="M130.765 56.8282C131.224 53.8151 132.438 52.5491 133.115 52.1753C136.317 50.3948 142.81 53.8373 149.203 61.8587C149.45 62.1492 149.599 62.5109 149.628 62.8915C149.743 65.342 144.231 65.7047 142.058 63.7133" stroke="black" stroke-width="1.2" stroke-linecap="round" stroke-linejoin="round"/>
<path d="M162.38 92.5381C152.796 95.9007 143.43 99.8568 134.337 104.383C127.563 107.752 121.803 110.961 116.165 114.404C117.061 112.679 118.016 110.898 119.086 109.077C120.156 107.256 121.244 105.453 122.314 103.787L123.576 102.229C117.979 106.26 98.4049 89.9507 106.267 80.3042C82.5767 102.936 57.2537 144.483 80.9146 168.096C98.168 185.309 126.863 164.909 135.136 155.607" stroke="black" stroke-width="1.2" stroke-linecap="round" stroke-linejoin="round"/>
<path d="M166.674 20.0935C158.345 32.8642 150.076 67.5411 160.326 76.2289C163.424 78.857 175.366 82.4624 186.678 66.1271" fill="#C7FA73"/>
<path d="M169.828 23.6693L166.674 20.0935C158.345 32.8642 150.076 67.5411 160.326 76.2289C160.484 76.3619 160.649 76.4855 160.822 76.599C154.044 65.7125 164.142 36.6102 169.828 23.6693Z" fill="white"/>
<path d="M166.674 20.0935C158.345 32.8642 150.076 67.5411 160.326 76.2289C163.424 78.857 175.366 82.4624 186.678 66.1271" stroke="black" stroke-width="1.2" stroke-linecap="round" stroke-linejoin="round"/>
<path d="M163.857 42.6103C162.628 42.1958 151.545 38.5163 150.335 41.3148C148.595 45.331 160.651 50.6947 161.388 51.2093" fill="#C7FA73"/>
<path d="M159.638 50.1877C158.897 49.6732 148.603 45.3164 150.335 41.3038C151.546 38.5054 161.148 41.7554 162.38 42.17C159.153 40.7301 155.951 41.8368 155.162 43.5433C154.303 45.4052 155.566 48.348 159.638 50.1877Z" fill="white"/>
<path d="M162.695 42.2328C161.466 41.8183 151.546 38.5312 150.335 41.3148C148.595 45.3311 159.63 50.1432 160.367 50.6615" stroke="black" stroke-width="1.2" stroke-linecap="round" stroke-linejoin="round"/>
<path d="M166.674 1.5C163.209 4.63899 158.656 11.7313 161.695 18.7015C162.178 19.836 162.819 20.8965 163.598 21.8516C164.164 22.529 161.932 29.8176 162.206 29.0476C163.865 24.3835 167.311 25.5311 169.439 25.5755C178.693 25.768 194.133 25.494 193.611 45.1942C194.492 49.166 197.039 53.8523 200.644 59.39C201.973 61.4293 203.467 63.3558 205.112 65.1497C209.204 60.0494 211.978 54.0215 213.193 47.5965C215.436 35.5514 211.823 26.7415 209.732 22.7141C202.195 8.56273 180.304 11.239 173.27 4.428C172.75 6.38968 172.826 8.46197 173.489 10.3802C171.712 9.75836 166.937 8.00378 166.674 1.5Z" fill="black" stroke="black" stroke-width="1.2" stroke-linecap="round" stroke-linejoin="round"/>
<path d="M193.041 45.7528C196.095 42.662 199.2 43.2542 200.318 43.8021C203.131 45.1865 203.89 54.311 195.136 56.8281" fill="#C7FA73"/>
<path d="M193.448 45.3607C196.35 42.5696 199.026 43.0619 200.318 43.8023C203.039 45.3644 203.89 54.3112 195.136 56.8283" stroke="black" stroke-width="1.2" stroke-linecap="round" stroke-linejoin="round"/>
<path d="M173.863 112.383L174.155 99.0381L188.554 99.1269L177.723 113.678C176.275 124.746 175.014 136.205 173.94 148.055C172.334 166.034 171.371 183.28 170.912 199.697L154.1 208.847C154.1 208.847 151.756 190.043 154.407 179.134C156.735 169.536 159.112 159.467 162.121 149.11C165.789 136.469 169.765 123.354 173.863 112.383Z" fill="black" stroke="black" stroke-width="1.2" stroke-linecap="round" stroke-linejoin="round"/>
<path d="M175.365 99.0828C174.825 99.4529 174.285 99.8527 173.737 100.249C171.619 101.789 169.435 103.469 167.207 105.309C163.765 108.152 160.696 110.972 157.979 113.678C157.946 110.322 158.27 106.972 158.945 103.684C162.695 86.3417 171.308 82.5846 172.545 81.8442C172.685 86.3565 170.461 94.7667 175.365 99.0828Z" fill="white" stroke="black" stroke-width="1.2" stroke-linecap="round" stroke-linejoin="round"/>
<path d="M205.667 167.215L203.209 174.692H203.18L181.103 241.685C178.039 243.094 174.756 243.97 171.397 244.276C170.516 244.353 169.621 244.394 168.736 244.394C167.096 244.393 165.46 244.258 163.842 243.991L183.513 184.313L181.499 183.228L160.918 245.664C163.475 246.305 166.1 246.629 168.736 246.63C169.646 246.63 170.605 246.589 171.597 246.5C175.542 246.144 179.388 245.061 182.939 243.306L208.11 166.952L205.686 167.215H205.667Z" fill="#C7FA73"/>
<path d="M160.918 245.66L162.21 241.74" stroke="black" stroke-width="1.2" stroke-linecap="round" stroke-linejoin="round"/>
<path d="M208.103 166.952L182.932 243.306C176.105 246.683 168.298 247.519 160.911 245.664L210.646 283.487L232.667 281.129L257.838 204.779L208.103 166.952Z" fill="black" stroke="black" stroke-width="1.2" stroke-linecap="round" stroke-linejoin="round"/>
<path d="M162.232 244.379L163.846 239.76L184.076 235.322L182.177 242.473L173.589 244.95L162.232 244.379Z" fill="#C7FA73"/>
<path d="M199.715 177.624L173.185 152.323L145.756 181.34L172.286 206.641L199.715 177.624Z" fill="white"/>
<path d="M195.473 173.615L178.431 171.59L180.008 180.537" stroke="#C7FA73" stroke-width="1.2" stroke-linecap="round" stroke-linejoin="round"/>
<path d="M172.737 169.306C174.614 169.306 176.136 167.785 176.136 165.908C176.136 164.032 174.614 162.51 172.737 162.51C170.861 162.51 169.339 164.032 169.339 165.908C169.339 167.785 170.861 169.306 172.737 169.306Z" fill="#C7FA73"/>
<path d="M199.715 177.624L173.185 152.323L145.756 181.34L172.286 206.641L199.715 177.624Z" stroke="#C7FA73" stroke-width="1.2" stroke-linecap="round" stroke-linejoin="round"/>
<path d="M160.711 178.25L164.398 199.186L172.286 206.641L195.251 182.347L160.711 178.25Z" fill="#C7FA73" stroke="#C7FA73" stroke-width="1.2" stroke-linecap="round" stroke-linejoin="round"/>
<path d="M184.705 206.023C182.278 203.094 179.14 200.835 175.592 199.464L175.662 198.931L171.834 198.375C171.067 198.223 170.292 198.11 169.513 198.039C165.219 197.648 160.904 198.506 157.086 200.509C153.267 202.512 150.109 205.575 147.989 209.33C145.87 213.085 144.88 217.373 145.139 221.677C145.397 225.981 146.893 230.119 149.447 233.593C149.628 233.837 149.817 234.081 150.006 234.333C154.292 239.689 160.996 242.521 167.848 242.218L171.76 242.047C175.362 241.651 177.605 240.781 180.359 238.716C190.746 230.924 193.015 216.014 184.705 206.023Z" fill="#C7FA73" stroke="#C7FA73" stroke-width="1.2" stroke-miterlimit="10"/>
<path d="M171.124 242.04C183.49 242.04 193.515 232.015 193.515 219.649C193.515 207.282 183.49 197.258 171.124 197.258C158.757 197.258 148.732 207.282 148.732 219.649C148.732 232.015 158.757 242.04 171.124 242.04Z" fill="#C7FA73" stroke="white" stroke-width="1.2" stroke-miterlimit="10"/>
<path d="M177.894 212.645L161.299 215.547C161.096 215.583 160.906 215.672 160.747 215.804C160.589 215.937 160.469 216.108 160.398 216.302C160.327 216.496 160.308 216.705 160.344 216.909C160.379 217.112 160.467 217.302 160.6 217.461L171.409 230.383C171.543 230.541 171.716 230.66 171.912 230.729C172.107 230.798 172.317 230.815 172.52 230.778C172.724 230.74 172.914 230.65 173.072 230.516C173.229 230.381 173.349 230.208 173.418 230.013L179.204 214.192C179.27 213.999 179.285 213.792 179.247 213.591C179.209 213.39 179.12 213.203 178.988 213.047C178.856 212.891 178.686 212.772 178.494 212.701C178.302 212.631 178.095 212.612 177.894 212.645V212.645Z" fill="white"/>
<path d="M229.646 197.89L198.838 223.284L163.38 180.271L187.041 160.767L200.081 162.025L229.646 197.89Z" fill="white" stroke="#C7FA73" stroke-width="1.2" stroke-linecap="round" stroke-linejoin="round"/>
<path d="M187.041 160.767L192.934 167.918L200.081 162.025L187.041 160.767Z" fill="#C7FA73" stroke="#C7FA73" stroke-width="1.2" stroke-linecap="round" stroke-linejoin="round"/>
<path d="M177.657 186.541L190.417 176.021" stroke="#C7FA73" stroke-width="1.2" stroke-linecap="round" stroke-linejoin="round"/>
<path d="M182.739 192.712L202.706 176.254" stroke="#C7FA73" stroke-width="1.2" stroke-linecap="round" stroke-linejoin="round"/>
<path d="M187.825 198.879L207.788 182.425" stroke="#C7FA73" stroke-width="1.2" stroke-linecap="round" stroke-linejoin="round"/>
<path d="M198.416 162.347L200.082 162.025L203.872 166.623" stroke="#C7FA73" stroke-width="1.2" stroke-linecap="round" stroke-linejoin="round"/>
<path d="M205.667 167.215L203.209 174.692H203.18L181.103 241.685C178.039 243.094 174.756 243.97 171.397 244.276C170.516 244.353 169.621 244.394 168.736 244.394C167.096 244.393 165.46 244.258 163.842 243.991L164.36 242.421L162.23 241.685L160.918 245.664C163.475 246.305 166.1 246.629 168.736 246.63C169.646 246.63 170.605 246.589 171.597 246.5C175.542 246.144 179.388 245.061 182.939 243.306L208.11 166.952L205.686 167.215H205.667Z" fill="#C7FA73"/>
<path d="M208.103 166.952L182.932 243.306C176.105 246.683 168.298 247.519 160.911 245.664L210.646 283.487L232.667 281.129L257.838 204.779L208.103 166.952Z" fill="black" stroke="black" stroke-width="1.2" stroke-linecap="round" stroke-linejoin="round"/>
<path d="M208.088 166.952L205.663 167.215L181.103 241.685C178.039 243.094 174.756 243.97 171.397 244.276C170.516 244.353 169.621 244.394 168.736 244.394C167.096 244.393 165.46 244.258 163.842 243.991" stroke="black" stroke-width="1.2" stroke-linecap="round" stroke-linejoin="round"/>
<path d="M182.177 242.721L232.667 281.129" stroke="#C7FA73" stroke-width="1.2" stroke-linecap="round" stroke-linejoin="round"/>
<path d="M238.364 224.465L231.771 244.713C230.687 248.044 227.329 248.877 224.275 246.563L205.767 232.627C202.747 230.35 201.181 225.831 202.266 222.529L208.854 202.466C209.935 199.179 213.256 198.335 216.258 200.578L234.766 214.33C237.842 216.613 239.445 221.159 238.364 224.465Z" fill="#C7FA73"/>
<path d="M213.004 223.676C213.476 224.008 213.833 224.48 214.024 225.025C214.214 225.57 214.229 226.161 214.066 226.715C213.696 227.796 212.73 227.959 211.904 227.341C210.998 226.66 210.424 225.32 210.764 224.239C211.105 223.158 212.104 223.01 213.004 223.676Z" fill="black"/>
<path d="M225.075 237.224L226.256 233.604L215.488 225.531L214.307 229.136L225.075 237.224Z" fill="black"/>
<path d="M218.483 217.01C217.864 218.897 218.505 220.711 219.016 221.666L218.986 221.755L217.524 220.885L216.461 224.128C217.372 224.809 218.475 225.527 219.715 226.456L226.845 231.798L228.025 228.181L222.136 223.776C221.84 223.576 221.572 223.337 221.34 223.065C220.848 222.362 220.252 221.355 220.574 220.363C220.989 219.105 222.158 219.305 223.48 220.293L229.202 224.568L230.383 220.959L224.246 216.38C221.185 214.096 219.219 214.759 218.483 217.01Z" fill="black"/>
<path d="M181.54 257.435C183.813 257.359 186.035 256.745 188.025 255.644L196.661 262.21L193.592 266.604L181.54 257.435Z" fill="white"/>
<path d="M214.766 273.163C213.73 273.411 186.534 272.156 188.114 262.965C189.38 258.127 214.707 267.459 218.719 260.089C220.289 255.692 213.245 254.222 208.11 252.549C204.642 251.416 202.758 246.389 209.454 246.478C214.636 246.545 227.529 247.589 234.966 245.664L241.725 247.27L246.537 248.481L253.156 261.999L248.488 273.189L224.901 282.558L213.2 283.939L207.625 282.18" fill="#C7FA73"/>
<path d="M56.1468 155.6C55.7298 155.598 55.3166 155.68 54.9315 155.84C54.5464 156 54.1971 156.235 53.9041 156.532C53.6111 156.829 53.3802 157.181 53.2251 157.568C53.0699 157.956 52.9935 158.37 53.0004 158.787C54.5366 223.195 102.536 276.129 164.768 285.309C171.57 286.314 177.719 289.911 181.929 295.348C182.184 295.673 182.51 295.936 182.882 296.117C183.254 296.298 183.662 296.393 184.076 296.393C184.489 296.393 184.897 296.298 185.269 296.117C185.641 295.936 185.967 295.673 186.222 295.348C190.465 289.921 196.621 286.321 203.431 285.287C238.771 280.038 274.218 264.872 292.989 236.299" stroke="white" stroke-width="2" stroke-miterlimit="10"/>
<path d="M218.712 267.13C219.082 267.382 189.987 267.13 189.987 267.13C183.894 275.029 208.832 279.715 211.423 280.204" fill="#C7FA73"/>
<path d="M213.182 277.939L191.712 274.507C188.969 281.711 206.889 286.353 212.441 286.238" fill="#C7FA73"/>
<path d="M218.716 281.126H195.166C207.011 299.219 241.718 283.484 245.804 280.641C259.045 271.427 257.153 262.181 251.394 259.423" fill="#C7FA73"/>
<path d="M218.138 285.801C216.186 279.816 215.483 273.494 216.072 267.226" stroke="black" stroke-width="1.2" stroke-linecap="round" stroke-linejoin="round"/>
<path d="M237.435 156.18C246.319 162.51 270.235 225.531 234.969 245.664V245.719C235.149 245.636 235.336 245.569 235.528 245.519C239.6 244.52 244.875 251.738 247.318 261.651C249.443 270.283 248.714 278.105 245.8 280.644C262.709 274.81 289.635 256.476 295.624 217.431C303.028 169.199 269.913 90.9129 215.117 87.9553" fill="white"/>
<path d="M237.435 156.18C246.319 162.51 270.235 225.531 234.969 245.664V245.719C235.149 245.636 235.336 245.569 235.528 245.519C239.6 244.52 244.875 251.738 247.318 261.651C249.443 270.283 248.714 278.105 245.8 280.644C262.709 274.81 289.635 256.476 295.624 217.431C303.028 169.199 269.913 90.9129 215.117 87.9553" stroke="black" stroke-width="1.2" stroke-linecap="round" stroke-linejoin="round"/>
<path d="M245.164 236.813C255.724 229.909 270.035 262.18 266.144 269.387" stroke="black" stroke-width="1.2" stroke-linecap="round" stroke-linejoin="round"/>
<path d="M234.958 245.664C227.522 247.57 214.64 246.545 209.446 246.478C202.75 246.389 204.634 251.416 208.103 252.549C213.237 254.222 220.281 255.692 218.712 260.089C214.699 267.459 189.372 258.238 188.106 262.965C186.789 270.668 205.667 272.793 212.434 273.137" stroke="black" stroke-width="1.2" stroke-linecap="round" stroke-linejoin="round"/>
<path d="M189.684 267.552C185.13 276.151 208.821 279.734 211.412 280.204" stroke="black" stroke-width="1.2" stroke-linecap="round" stroke-linejoin="round"/>
<path d="M191.723 274.507C188.98 281.711 206.9 286.353 212.452 286.238" stroke="black" stroke-width="1.2" stroke-linecap="round" stroke-linejoin="round"/>
<path d="M195.166 281.126C207.011 299.219 241.718 283.484 245.804 280.641" stroke="black" stroke-width="1.2" stroke-linecap="round" stroke-linejoin="round"/>
<path d="M205.523 72.4048C206.145 77.7092 191.271 96.7949 185.445 99.4934C190.435 101.204 200.811 115.473 203.479 118.934C206.219 113.189 208.932 107 211.527 100.371C213.272 95.9139 214.845 91.5817 216.246 87.3742C215.935 84.4906 209.809 72.7231 205.523 72.4048Z" fill="white" stroke="black" stroke-width="1.2" stroke-linecap="round" stroke-linejoin="round"/>
</g>
<defs>
<clipPath id="clip0_2779:1071">
<rect width="368" height="297.99" fill="white"/>
</clipPath>
</defs>
</svg>
